<!-- icon666.com - MILLIONS vector ICONS FREE --><svg id="Capa_1" enable-background="new 0 0 512 512" viewBox="0 0 512 512" xmlns="http://www.w3.org/2000/svg"><g><g><path d="m407.472 195.596h-19.525v39.82h30.095v-34.969z" fill="#fd4755" style="fill: rgb(145, 54, 61);"></path><path d="m387.947 195.596h14.053v39.82h-14.053z" fill="#fb2b3a" style="fill: rgb(97, 46, 49);"></path><path d="m380.101 152.735c-9.296 0-16.831 7.536-16.831 16.831v9.198c0 9.296 7.536 16.831 16.831 16.831h27.371v-42.86z" fill="#54469c" style="fill: rgb(18, 18, 18);"></path><g><path d="m382.292 178.765v-9.198c0-9.296 7.536-16.831 16.831-16.831h-19.022c-9.296 0-16.831 7.536-16.831 16.831v9.198c0 9.296 7.536 16.831 16.831 16.831h19.022c-9.296 0-16.831-7.536-16.831-16.831z" fill="#463b84" style="fill: rgb(90, 89, 95);"></path></g><path d="m483.07 152.735h-7.678v42.86h7.678c11.836 0 21.43-9.595 21.43-21.43 0-11.835-9.595-21.43-21.43-21.43z" fill="#54469c" style="fill: rgb(18, 18, 18);"></path><g><path d="m407.472 195.596 64.135 29.434c1.818.834 3.785-.73 3.785-3.01v-95.709c0-2.28-1.967-3.844-3.785-3.01l-64.135 29.434z" fill="#fd4755" style="fill: rgb(145, 54, 61);"></path></g><g><path d="m436 176.132v-36.489l-28.528 13.093v42.86l64.135 29.434c1.818.834 3.785-.73 3.785-3.01v-24.603l-36.477-16.741c-1.777-.815-2.915-2.59-2.915-4.544z" fill="#fb2b3a" style="fill: rgb(97, 46, 49);"></path></g></g><path d="m486.565 316.053-33.342-66.732c-4.564-9.135-13.899-14.906-24.11-14.906h-104.654v164.948h37.76c8.41-11.745 22.159-19.406 37.706-19.406s29.296 7.661 37.706 19.406h51.776v-71.264c0-4.181-.973-8.305-2.842-12.046z" fill="#fed402" style="fill: rgb(254, 199, 1);"></path><g><path d="m324.459 234.415h39.593v164.948h-39.593z" fill="#fac600" style="fill: rgb(143, 128, 66);"></path></g><g><path d="m489.407 399.363v-45.415h-21.562c-2.977 0-5.39 2.413-5.39 5.39v40.025z" fill="#fe7701"></path></g><g><path d="m425.78 261.368h-68.979c-2.977 0-5.39 2.413-5.39 5.39v55.951c0 2.977 2.413 5.39 5.39 5.39h96.934c4.006 0 6.613-4.216 4.822-7.8l-27.955-55.951c-.913-1.826-2.78-2.98-4.822-2.98z" fill="#60b7ff"></path></g><g><path d="m356.802 261.368c-2.977 0-5.39 2.413-5.39 5.39v55.951c0 2.977 2.413 5.39 5.39 5.39h28.03v-66.732h-28.03z" fill="#26a6fe"></path></g><path d="m299.522 183.907-5.69 31.967c-.562 3.159-4.329 4.53-6.79 2.471l-24.907-20.831c-1.551-1.297-3.807-1.297-5.358 0l-24.907 20.831c-2.461 2.058-6.228.687-6.79-2.471l-5.69-31.967c-.354-1.99-2.083-3.441-4.104-3.444l-32.47-.052c-3.208-.005-5.213-3.477-3.613-6.258l14.326-24.906h-175.248c-5.954 0-10.781 4.827-10.781 10.781v239.336h52.854c8.41-11.745 22.159-19.406 37.706-19.406s29.296 7.661 37.706 19.406h65.818c8.41-11.745 22.159-19.406 37.706-19.406s29.296 7.661 37.706 19.406h47.463v-218.935l-20.832.034c-2.022.003-3.75 1.454-4.105 3.444z" fill="#0ed290" style="fill: rgb(68, 141, 117);"></path><g><path d="m51.822 149.246h-33.541c-5.954 0-10.781 4.827-10.781 10.781v239.336h33.541v-239.336c0-5.954 4.827-10.781 10.781-10.781z" fill="#00c285" style="fill: rgb(17, 70, 53);"></path></g><g fill="#8379c1"><path d="m354.026 432.784c-.295-2.115-.459-4.272-.459-6.469 0-10.056 3.212-19.356 8.652-26.952h-85.224c5.44 7.596 8.652 16.896 8.652 26.952 0 2.196-.164 4.354-.459 6.469z" fill="#8379c1" style="fill: rgb(70, 68, 85);"></path><path d="m135.766 399.363c5.44 7.596 8.652 16.896 8.652 26.952 0 2.196-.164 4.354-.459 6.469h49.432c-.295-2.115-.459-4.272-.459-6.469 0-10.056 3.212-19.356 8.652-26.952z" fill="#8379c1" style="fill: rgb(70, 68, 85);"></path><path d="m437.631 399.363c5.44 7.596 8.652 16.896 8.652 26.952 0 2.196-.164 4.354-.459 6.469h32.802c5.954 0 10.781-4.827 10.781-10.781v-22.64z" fill="#8379c1" style="fill: rgb(70, 68, 85);"></path><path d="m51.702 426.316c0-10.056 3.212-19.356 8.652-26.952h-52.854v22.64c0 5.954 4.827 10.781 10.781 10.781h33.88c-.296-2.116-.459-4.273-.459-6.469z" fill="#8379c1" style="fill: rgb(70, 68, 85);"></path></g><g><path d="m18.281 432.784h22.76v-33.421h-33.541v22.64c0 5.954 4.827 10.781 10.781 10.781z" fill="#6e61b6" style="fill: rgb(67, 65, 78);"></path></g><g><circle cx="98.06" cy="426.316" fill="#54469c" r="46.358" style="fill: rgb(18, 18, 18);"></circle></g><g><path d="m77 426.316c0-21.216 14.257-39.089 33.709-44.596-4.023-1.139-8.262-1.761-12.649-1.761-25.603 0-46.358 20.755-46.358 46.358s20.755 46.358 46.358 46.358c4.387 0 8.627-.623 12.649-1.761-19.452-5.509-33.709-23.383-33.709-44.598z" fill="#463b84" style="fill: rgb(90, 89, 95);"></path></g><circle cx="98.06" cy="426.316" fill="#fff" r="15.859"></circle><g><circle cx="239.29" cy="426.316" fill="#54469c" r="46.358" style="fill: rgb(18, 18, 18);"></circle></g><g><path d="m218 426.316c0-21.257 14.313-39.16 33.824-44.629-3.988-1.118-8.189-1.729-12.534-1.729-25.603 0-46.358 20.755-46.358 46.358s20.755 46.358 46.358 46.358c4.345 0 8.546-.611 12.534-1.729-19.511-5.469-33.824-23.372-33.824-44.629z" fill="#463b84" style="fill: rgb(90, 89, 95);"></path></g><circle cx="239.29" cy="426.316" fill="#fff" r="15.859"></circle><g><circle cx="399.925" cy="426.316" fill="#54469c" r="46.358" style="fill: rgb(18, 18, 18);"></circle></g><g><path d="m379 426.316c0-21.191 14.224-39.048 33.642-44.577-4.042-1.151-8.305-1.781-12.716-1.781-25.603 0-46.358 20.755-46.358 46.358s20.755 46.358 46.358 46.358c4.412 0 8.674-.629 12.716-1.781-19.418-5.529-33.642-23.386-33.642-44.577z" fill="#463b84" style="fill: rgb(90, 89, 95);"></path></g><circle cx="399.925" cy="426.316" fill="#fff" r="15.859"></circle><g><g><path d="m102.811 243.351 8.527 17.278c.645 1.306 1.891 2.212 3.333 2.421l19.068 2.771c3.63.528 5.08 4.989 2.453 7.55l-13.798 13.449c-1.043 1.017-1.519 2.482-1.273 3.918l3.257 18.991c.62 3.616-3.175 6.373-6.422 4.666l-17.055-8.966c-1.289-.678-2.83-.678-4.119 0l-17.055 8.966c-3.247 1.707-7.042-1.05-6.422-4.666l3.257-18.991c.246-1.436-.23-2.901-1.273-3.918l-13.798-13.449c-2.627-2.561-1.177-7.022 2.453-7.55l19.068-2.771c1.442-.21 2.688-1.115 3.333-2.421l8.527-17.278c1.624-3.289 6.316-3.289 7.939 0z" fill="#fed402" style="fill: rgb(254, 199, 1);"></path></g><g><g><path d="m96.155 300.845 3.257-18.991c.246-1.436-.23-2.901-1.273-3.918l-13.798-13.449c-.463-.452-.793-.964-1.014-1.502-.105.023-.208.05-.315.066l-19.068 2.771c-3.63.528-5.08 4.989-2.453 7.55l13.798 13.449c1.043 1.017 1.519 2.482 1.273 3.918l-3.257 18.991c-.62 3.616 3.175 6.373 6.422 4.666l17.055-8.966c.317-.166.648-.291.988-.376-1.188-.942-1.913-2.473-1.615-4.209z" fill="#fac600" style="fill: rgb(143, 128, 66);"></path></g></g></g><g><g><path d="m263.07 41.408 16.28 28.093c1.013 1.749 3.134 2.521 5.035 1.833l30.53-11.056c3.017-1.093 6.087 1.484 5.535 4.645l-5.587 31.986c-.348 1.991.781 3.946 2.679 4.64l30.494 11.154c3.013 1.102 3.709 5.05 1.255 7.116l-24.84 20.911c-1.546 1.302-1.938 3.524-.93 5.276l16.19 28.146c1.6 2.781-.404 6.253-3.613 6.258l-32.47.052c-2.021.003-3.75 1.454-4.104 3.444l-5.69 31.967c-.562 3.159-4.329 4.53-6.79 2.471l-24.907-20.831c-1.551-1.297-3.807-1.297-5.358 0l-24.907 20.831c-2.461 2.058-6.228.687-6.79-2.471l-5.69-31.967c-.354-1.99-2.083-3.441-4.104-3.444l-32.47-.052c-3.208-.005-5.213-3.477-3.613-6.258l16.19-28.146c1.008-1.752.616-3.975-.93-5.276l-24.84-20.911c-2.455-2.066-1.758-6.014 1.255-7.116l30.494-11.154c1.898-.694 3.027-2.649 2.679-4.64l-5.587-31.986c-.552-3.161 2.519-5.737 5.535-4.645l30.53 11.056c1.901.688 4.021-.084 5.035-1.833l16.28-28.093c1.606-2.776 5.615-2.776 7.224 0z" fill="#fed402" style="fill: rgb(254, 199, 1);"></path></g><g><g><path d="m223 134c0-34.044 20.264-63.336 49.378-76.528l-9.309-16.063c-1.609-2.776-5.617-2.776-7.226 0l-16.28 28.094c-1.013 1.749-3.134 2.521-5.035 1.833l-30.53-11.056c-3.017-1.092-6.087 1.484-5.535 4.645l5.587 31.986c.348 1.991-.781 3.946-2.679 4.64l-30.494 11.154c-3.013 1.102-3.709 5.05-1.255 7.116l24.84 20.911c1.546 1.302 1.938 3.524.93 5.276l-16.19 28.146c-1.6 2.781.404 6.253 3.613 6.258l32.47.052c2.021.003 3.75 1.454 4.104 3.444l5.69 31.967c.562 3.159 4.329 4.53 6.79 2.471l22.548-18.858c-19.148-15.397-31.417-39.004-31.417-65.488z" fill="#fac600" style="fill: rgb(143, 128, 66);"></path></g></g></g><g><path d="m425.78 253.868h-68.979c-7.108 0-12.891 5.783-12.891 12.891v55.951c0 7.108 5.783 12.891 12.891 12.891h96.934c4.5 0 8.599-2.285 10.964-6.112 2.366-3.827 2.578-8.515.566-12.54l-27.955-55.95c-2.195-4.399-6.614-7.131-11.53-7.131zm-48.448 66.732h-18.421v-51.732h18.421zm15 0v-51.732h32.144l25.847 51.732z" fill="#000000"></path><path d="m98.06 402.957c-12.88 0-23.359 10.479-23.359 23.359s10.479 23.359 23.359 23.359 23.359-10.479 23.359-23.359-10.479-23.359-23.359-23.359zm0 31.718c-4.609 0-8.359-3.75-8.359-8.359s3.75-8.359 8.359-8.359 8.359 3.75 8.359 8.359-3.75 8.359-8.359 8.359z" fill="#000000"></path><path d="m239.29 402.957c-12.88 0-23.359 10.479-23.359 23.359s10.479 23.359 23.359 23.359 23.359-10.479 23.359-23.359-10.479-23.359-23.359-23.359zm0 31.718c-4.609 0-8.359-3.75-8.359-8.359s3.75-8.359 8.359-8.359 8.359 3.75 8.359 8.359-3.75 8.359-8.359 8.359z" fill="#000000"></path><path d="m399.925 449.675c12.88 0 23.359-10.479 23.359-23.359s-10.479-23.359-23.359-23.359-23.359 10.479-23.359 23.359 10.479 23.359 23.359 23.359zm0-31.718c4.609 0 8.359 3.75 8.359 8.359s-3.75 8.359-8.359 8.359-8.359-3.75-8.359-8.359 3.75-8.359 8.359-8.359z" fill="#000000"></path><path d="m53.239 266.516c-1.413 4.349-.257 9.034 3.018 12.227l12.64 12.321-2.984 17.398c-.773 4.507 1.045 8.977 4.745 11.665s8.511 3.035 12.56.908l15.625-8.214 15.625 8.214c1.76.925 3.665 1.383 5.561 1.382 2.462 0 4.909-.771 6.999-2.29 3.7-2.688 5.518-7.157 4.745-11.665l-2.984-17.398 12.641-12.322c3.274-3.192 4.431-7.877 3.017-12.226-1.413-4.349-5.102-7.458-9.627-8.116l-17.469-2.539-7.812-15.83c-2.024-4.101-6.122-6.648-10.694-6.648-4.573 0-8.671 2.547-10.695 6.648l-7.812 15.829-17.471 2.54c-4.525.657-8.214 3.767-9.628 8.116zm30.852 3.957c3.885-.564 7.242-3.002 8.98-6.523l5.771-11.693 5.772 11.695c1.738 3.52 5.094 5.958 8.979 6.522l12.905 1.875-9.336 9.101c-2.813 2.741-4.096 6.688-3.431 10.557l2.204 12.852-11.542-6.068c-3.475-1.826-7.624-1.826-11.099 0l-11.542 6.068 2.204-12.851c.665-3.871-.618-7.818-3.43-10.558l-9.337-9.102z" fill="#000000"></path><path d="m170.062 263.197h50.764c4.142 0 7.5-3.358 7.5-7.5s-3.358-7.5-7.5-7.5h-50.764c-4.142 0-7.5 3.358-7.5 7.5s3.358 7.5 7.5 7.5z" fill="#000000"></path><path d="m170.062 296.618h99.414c4.142 0 7.5-3.358 7.5-7.5s-3.358-7.5-7.5-7.5h-99.414c-4.142 0-7.5 3.358-7.5 7.5s3.358 7.5 7.5 7.5z" fill="#000000"></path><path d="m170.062 322.414h99.414c4.142 0 7.5-3.358 7.5-7.5s-3.358-7.5-7.5-7.5h-99.414c-4.142 0-7.5 3.358-7.5 7.5s3.358 7.5 7.5 7.5z" fill="#000000"></path><path d="m468.478 231.846c1.326.608 2.738.909 4.145.909 1.873 0 3.737-.533 5.377-1.585 3.063-1.964 4.892-5.385 4.892-9.15v-18.924h.178c15.952 0 28.93-12.978 28.93-28.93s-12.978-28.93-28.93-28.93h-.178v-18.924c0-3.766-1.829-7.186-4.891-9.15-2.873-1.842-6.433-2.094-9.522-.676l-62.645 28.75h-25.732c-13.416 0-24.331 10.915-24.331 24.331v9.198c0 13.416 10.915 24.331 24.331 24.331h.346v23.82h-48.488v-38.998l4.15-.007c4.15-.007 8.017-2.244 10.092-5.838s2.079-8.062.01-11.659l-14.803-25.736 22.712-19.12c3.175-2.673 4.7-6.873 3.979-10.96s-3.59-7.512-7.487-8.938l-27.884-10.2 5.108-29.247c.714-4.089-.817-8.286-3.997-10.954s-7.58-3.448-11.48-2.034l-27.916 10.109-14.886-25.688c-2.081-3.591-5.951-5.821-10.101-5.822-4.15 0-8.021 2.23-10.103 5.822l-14.886 25.688-27.915-10.109c-3.903-1.415-8.302-.635-11.481 2.034-3.179 2.668-4.711 6.865-3.997 10.953l5.108 29.247-27.882 10.199c-3.897 1.425-6.767 4.85-7.487 8.937-.721 4.087.803 8.287 3.979 10.961l19.23 16.189h-83.023c-4.142 0-7.5 3.358-7.5 7.5s3.358 7.5 7.5 7.5h79.564l-7.862 13.667c-2.069 3.598-2.065 8.065.01 11.659s5.942 5.832 10.093 5.838l29.689.048 5.203 29.23c.728 4.086 3.602 7.506 7.502 8.925 3.901 1.42 8.301.647 11.483-2.016l22.774-19.047 22.774 19.048c2.128 1.78 4.801 2.715 7.504 2.715 1.34 0 2.688-.229 3.98-.7 3.9-1.42 6.774-4.84 7.501-8.925l5.203-29.23 10.54-.017v203.922h-36.311c-9.887-11.849-24.756-19.405-41.359-19.405s-31.471 7.556-41.359 19.405h-58.512c-9.887-11.849-24.756-19.405-41.359-19.405s-31.471 7.556-41.359 19.405h-41.699v-231.835c0-1.809 1.472-3.281 3.281-3.281h47.719c4.142 0 7.5-3.358 7.5-7.5s-3.358-7.5-7.5-7.5h-47.719c-10.08 0-18.281 8.201-18.281 18.281v239.336 22.64c0 10.08 8.201 18.281 18.281 18.281h27.769c6.169 22.946 27.144 39.89 52.01 39.89s45.841-16.944 52.01-39.89h37.21c6.169 22.946 27.144 39.89 52.01 39.89s45.841-16.944 52.01-39.89h9.7c4.142 0 7.5-3.358 7.5-7.5s-3.358-7.5-7.5-7.5h-7.879c-.123-6.483-1.395-12.687-3.624-18.421h60.22c-2.229 5.734-3.501 11.938-3.624 18.421h-10.093c-4.142 0-7.5 3.358-7.5 7.5s3.358 7.5 7.5 7.5h11.915c6.169 22.946 27.144 39.89 52.01 39.89s45.841-16.944 52.01-39.89h26.69c10.08 0 18.281-8.201 18.281-18.281v-93.904c0-5.316-1.256-10.641-3.633-15.399l-10.996-22.006c-1.852-3.705-6.356-5.208-10.062-3.356-3.705 1.852-5.208 6.356-3.356 10.062l10.995 22.005c1.342 2.687 2.051 5.693 2.051 8.695v18.349h-14.062c-7.107 0-12.89 5.783-12.89 12.891v32.524h-13.671c-9.887-11.849-24.756-19.405-41.359-19.405s-31.471 7.556-41.359 19.405h-26.608v-149.948h97.154c7.417 0 14.085 4.122 17.401 10.758l6.702 13.416c1.853 3.706 6.357 5.21 10.062 3.357 3.706-1.851 5.208-6.355 3.357-10.061l-6.703-13.416c-5.873-11.752-17.682-19.053-30.819-19.053h-3.571v-14.775zm14.414-71.611h.178c7.681 0 13.93 6.249 13.93 13.93s-6.249 13.93-13.93 13.93h-.178zm-438.664 265.049h-25.947c-1.809 0-3.281-1.472-3.281-3.281v-15.14h32.852c-2.23 5.734-3.501 11.938-3.624 18.421zm53.832 39.89c-21.426 0-38.858-17.432-38.858-38.858s17.432-38.858 38.858-38.858 38.858 17.432 38.858 38.858-17.432 38.858-38.858 38.858zm87.398-39.89h-33.567c-.123-6.483-1.395-12.687-3.624-18.421h40.814c-2.229 5.734-3.5 11.938-3.623 18.421zm53.832 39.89c-21.426 0-38.858-17.432-38.858-38.858s17.432-38.858 38.858-38.858 38.858 17.432 38.858 38.858-17.432 38.858-38.858 38.858zm64.326-292.211c-5.66.008-10.487 4.059-11.478 9.629l-4.685 26.32-20.506-17.151c-4.341-3.63-10.642-3.63-14.981 0l-20.507 17.151-4.685-26.319c-.991-5.572-5.818-9.622-11.476-9.63l-26.734-.043 13.33-23.173c2.822-4.905 1.728-11.109-2.602-14.754l-20.451-17.217 25.107-9.184c5.313-1.944 8.463-7.4 7.49-12.974l-4.6-26.334 25.135 9.102c5.322 1.93 11.241-.227 14.079-5.124l13.404-23.13 13.404 23.13c2.837 4.896 8.759 7.052 14.077 5.124l25.136-9.103-4.6 26.335c-.973 5.573 2.177 11.029 7.491 12.974l25.106 9.184-20.451 17.217c-4.329 3.644-5.423 9.849-2.602 14.753l13.33 23.174zm166.339 188.485h11.952v30.415h-11.952zm11.952 45.415v15.14c0 1.809-1.472 3.281-3.281 3.281h-24.869c-.123-6.483-1.395-12.687-3.624-18.421zm-81.982-19.405c21.426 0 38.858 17.432 38.858 38.858s-17.432 38.858-38.858 38.858-38.858-17.432-38.858-38.858 17.432-38.858 38.858-38.858zm-19.824-199.362c-5.145 0-9.331-4.186-9.331-9.331v-9.198c0-5.145 4.186-9.331 9.331-9.331h19.871v27.86zm30.441 38.82h-15.094v-23.82h10.385l4.709 2.161zm4.43-36.13v-33.24l52.92-24.287v81.814z" fill="#000000"></path><path d="m239.274 109.872h40.365c4.142 0 7.5-3.358 7.5-7.5s-3.358-7.5-7.5-7.5h-40.365c-4.142 0-7.5 3.358-7.5 7.5s3.358 7.5 7.5 7.5z" fill="#000000"></path><path d="m289.327 121.824h-59.74c-4.142 0-7.5 3.358-7.5 7.5s3.358 7.5 7.5 7.5h59.74c4.142 0 7.5-3.358 7.5-7.5s-3.358-7.5-7.5-7.5z" fill="#000000"></path><path d="m279.639 148.776h-40.365c-4.142 0-7.5 3.358-7.5 7.5s3.358 7.5 7.5 7.5h40.365c4.142 0 7.5-3.358 7.5-7.5s-3.358-7.5-7.5-7.5z" fill="#000000"></path></g></g></svg>